<mxfile host="app.diagrams.net" modified="2024-07-11T19:09:13.289Z" agent="Mozilla/5.0 (X11; Linux x86_64) AppleWebKit/537.36 (KHTML, like Gecko) Chrome/119.0.0.0 Safari/537.36" etag="XlDJinl_debY19w1fTH5" version="24.6.4" type="device">
  <diagram name="Page-1" id="-1b8dy-LMouZqffwLgTd">
    <mxGraphModel dx="815" dy="435" grid="1" gridSize="10" guides="1" tooltips="1" connect="1" arrows="1" fold="1" page="1" pageScale="1" pageWidth="850" pageHeight="1100" math="0" shadow="0">
      <root>
        <mxCell id="0" />
        <mxCell id="1" parent="0" />
        <mxCell id="zZ0U3I0l1S0aOFN0MOAt-5" style="edgeStyle=orthogonalEdgeStyle;rounded=0;orthogonalLoop=1;jettySize=auto;html=1;entryX=0.5;entryY=0;entryDx=0;entryDy=0;" edge="1" parent="1" source="zZ0U3I0l1S0aOFN0MOAt-1" target="zZ0U3I0l1S0aOFN0MOAt-2">
          <mxGeometry relative="1" as="geometry">
            <Array as="points">
              <mxPoint x="575" y="90" />
            </Array>
          </mxGeometry>
        </mxCell>
        <mxCell id="zZ0U3I0l1S0aOFN0MOAt-1" value="Temp sensor data collection" style="shape=hexagon;perimeter=hexagonPerimeter2;whiteSpace=wrap;html=1;fixedSize=1;" vertex="1" parent="1">
          <mxGeometry x="350" y="70" width="150" height="40" as="geometry" />
        </mxCell>
        <mxCell id="zZ0U3I0l1S0aOFN0MOAt-6" style="edgeStyle=orthogonalEdgeStyle;rounded=0;orthogonalLoop=1;jettySize=auto;html=1;entryX=1;entryY=0.5;entryDx=0;entryDy=0;" edge="1" parent="1" source="zZ0U3I0l1S0aOFN0MOAt-2" target="zZ0U3I0l1S0aOFN0MOAt-3">
          <mxGeometry relative="1" as="geometry" />
        </mxCell>
        <mxCell id="zZ0U3I0l1S0aOFN0MOAt-2" value="Temp condition controller" style="shape=hexagon;perimeter=hexagonPerimeter2;whiteSpace=wrap;html=1;fixedSize=1;" vertex="1" parent="1">
          <mxGeometry x="500" y="150" width="150" height="40" as="geometry" />
        </mxCell>
        <mxCell id="zZ0U3I0l1S0aOFN0MOAt-7" style="edgeStyle=orthogonalEdgeStyle;rounded=0;orthogonalLoop=1;jettySize=auto;html=1;entryX=0.5;entryY=1;entryDx=0;entryDy=0;" edge="1" parent="1" source="zZ0U3I0l1S0aOFN0MOAt-3" target="zZ0U3I0l1S0aOFN0MOAt-4">
          <mxGeometry relative="1" as="geometry">
            <Array as="points">
              <mxPoint x="275" y="240" />
            </Array>
          </mxGeometry>
        </mxCell>
        <mxCell id="zZ0U3I0l1S0aOFN0MOAt-3" value="Watering controller" style="shape=hexagon;perimeter=hexagonPerimeter2;whiteSpace=wrap;html=1;fixedSize=1;" vertex="1" parent="1">
          <mxGeometry x="350" y="220" width="150" height="40" as="geometry" />
        </mxCell>
        <mxCell id="zZ0U3I0l1S0aOFN0MOAt-8" style="edgeStyle=orthogonalEdgeStyle;rounded=0;orthogonalLoop=1;jettySize=auto;html=1;entryX=0;entryY=0.5;entryDx=0;entryDy=0;" edge="1" parent="1" source="zZ0U3I0l1S0aOFN0MOAt-4" target="zZ0U3I0l1S0aOFN0MOAt-1">
          <mxGeometry relative="1" as="geometry" />
        </mxCell>
        <mxCell id="zZ0U3I0l1S0aOFN0MOAt-4" value="Software Alarm System" style="shape=hexagon;perimeter=hexagonPerimeter2;whiteSpace=wrap;html=1;fixedSize=1;" vertex="1" parent="1">
          <mxGeometry x="200" y="150" width="150" height="40" as="geometry" />
        </mxCell>
      </root>
    </mxGraphModel>
  </diagram>
</mxfile>
